<?xml version="1.0" encoding="UTF-8" standalone="no"?>
<svg
   xmlns:dc="http://purl.org/dc/elements/1.1/"
   xmlns:cc="http://creativecommons.org/ns#"
   xmlns:rdf="http://www.w3.org/1999/02/22-rdf-syntax-ns#"
   xmlns:svg="http://www.w3.org/2000/svg"
   xmlns="http://www.w3.org/2000/svg"
   xmlns:sodipodi="http://sodipodi.sourceforge.net/DTD/sodipodi-0.dtd"
   xmlns:inkscape="http://www.inkscape.org/namespaces/inkscape"
   sodipodi:docname="ElectricpyLogo.svg"
   inkscape:version="1.0 (4035a4fb49, 2020-05-01)"
   id="svg52"
   version="1.1"
   viewBox="0 0 50.8 50.800001"
   height="2in"
   width="2in">
  <defs
     id="defs46">
    <clipPath
       clipPathUnits="userSpaceOnUse"
       id="clipPath208">
      <path
         d="M 0,846.442 H 846.442 V 0 H 0 Z"
         id="path206" />
    </clipPath>
  </defs>
  <sodipodi:namedview
     inkscape:window-maximized="1"
     inkscape:window-y="-8"
     inkscape:window-x="-8"
     inkscape:window-height="1137"
     inkscape:window-width="1920"
     units="in"
     showgrid="false"
     inkscape:document-rotation="0"
     inkscape:current-layer="layer1"
     inkscape:document-units="mm"
     inkscape:cy="96"
     inkscape:cx="96"
     inkscape:zoom="4.8072917"
     inkscape:pageshadow="2"
     inkscape:pageopacity="0.0"
     borderopacity="1.0"
     bordercolor="#666666"
     pagecolor="#ffffff"
     id="base" />
  <metadata
     id="metadata49">
    <rdf:RDF>
      <cc:Work
         rdf:about="">
        <dc:format>image/svg+xml</dc:format>
        <dc:type
           rdf:resource="http://purl.org/dc/dcmitype/StillImage" />
        <dc:title></dc:title>
      </cc:Work>
    </rdf:RDF>
  </metadata>
  <g
     id="layer1"
     inkscape:groupmode="layer"
     inkscape:label="Layer 1">
    <path
       sodipodi:nodetypes="cccscsssscccccscscssccccc"
       id="path1236-8-5"
       d="m 7.1262061,46.618176 c -0.9149914,-0.0055 -0.3307291,-2.182808 7.0306649,-10.967391 0,0 0.333252,-0.09354 -1.624787,-0.129786 -0.80599,-0.02011 -1.775127,-0.05364 -2.153637,-0.07449 l -0.6882032,-0.03792 0.11534,-0.177091 c 0.06344,-0.0974 2.4244472,-3.260572 5.2191252,-7.049667 5.083036,-6.891709 5.094449,-6.881185 5.083036,-6.891709 -0.01141,-0.01052 0.405869,0.04596 -3.227986,-0.168262 l -3.254958,-0.191884 11.699091,-9.151427 c 0,0 -5.37238,-0.127044 -9.793474,1.128976 C 14.218178,9.8640658 12.207329,6.4612892 13.83287,4.5085902 17.34091,1.5535856 39.36891,3.8911406 41.682586,4.175961 40.971964,4.77507 33.97661,10.86614 26.376932,16.813241 c -1.145504,0.896411 -2.246064,1.759543 -2.246568,1.786789 -5.29e-4,0.02725 1.62042,0.05731 3.602054,0.06682 l 3.602965,0.0173 -5.415095,5.846523 c -6.486978,7.003803 -7.896837,8.538228 -7.928978,8.629536 -0.0167,0.04743 0.990816,0.05555 3.207234,0.02585 l 3.231579,-0.04331 -0.200452,0.173194 C 7.1262061,46.618221 10.092161,46.614937 7.3081071,46.626489 Z"
       style="fill:#4475a1;fill-opacity:1;stroke:#000000;stroke-width:0.762;stroke-miterlimit:4;stroke-dasharray:none;stroke-opacity:1" />
    <ellipse
       cx="16.702833"
       cy="6.4772568"
       rx="0.83521724"
       ry="1.0022607"
       id="path3228"
       style="fill:#000000;fill-opacity:1;fill-rule:evenodd;stroke-width:0.264583" />
    <path
       style="fill:#ffda66;fill-opacity:1;stroke:#000000;stroke-width:0.762;stroke-miterlimit:4;stroke-dasharray:none;stroke-opacity:1"
       d="m 43.611771,4.2901306 c 0.914992,0.0055 0.330729,2.182809 -7.030665,10.9673914 0,0 -0.333251,0.09354 1.624787,0.129786 0.80599,0.02011 1.775127,0.05364 2.153637,0.07449 l 0.688204,0.03792 -0.11534,0.177091 c -0.06344,0.0974 -2.424447,3.260572 -5.219126,7.049667 -5.083035,6.891708 -5.094448,6.881184 -5.083035,6.891708 0.01141,0.01052 -0.405869,-0.04596 3.227986,0.168262 l 3.254957,0.191884 -11.69909,9.151427 c 0,0 5.37238,0.127045 9.793473,-1.128976 1.31224,3.04346 3.323089,6.446237 1.697548,8.398936 -3.508039,2.955004 -25.53604,0.617449 -27.8497155,0.332629 0.710623,-0.599109 7.7059765,-6.69018 15.3056545,-12.637281 1.145504,-0.896411 2.246064,-1.759543 2.246568,-1.786789 5.29e-4,-0.02725 -1.620421,-0.05731 -3.602054,-0.06682 l -3.602966,-0.0173 5.415096,-5.846523 c 6.486978,-7.003803 7.896837,-8.538228 7.928978,-8.629536 0.0167,-0.04743 -0.990816,-0.05555 -3.207234,-0.02585 l -3.231579,0.04331 0.200452,-0.173193 C 43.611771,4.2900856 40.645816,4.2933716 43.42987,4.2818196 Z"
       id="path1236-8-5-1"
       sodipodi:nodetypes="cccscsssscccccscscssccccc" />
    <ellipse
       style="fill:#000000;fill-opacity:1;fill-rule:evenodd;stroke-width:0.264583"
       id="path3228-2"
       ry="1.0022607"
       rx="0.83521724"
       cy="44.30127"
       cx="35.314838" />
    <rect
       y="32.49501"
       x="18.971869"
       height="0.14783089"
       width="6.2604203"
       id="rect3300"
       style="fill:#050400;fill-opacity:1;fill-rule:evenodd;stroke:#000000;stroke-width:0.812607;stroke-miterlimit:4;stroke-dasharray:none;stroke-opacity:1" />
    <rect
       style="fill:#050400;fill-opacity:1;fill-rule:evenodd;stroke:#000000;stroke-width:0.816671;stroke-miterlimit:4;stroke-dasharray:none;stroke-opacity:1"
       id="rect3300-4"
       width="6.5019112"
       height="0.14376737"
       x="25.180676"
       y="18.157568" />
    <path
       style="fill:#ffffff;fill-opacity:1;stroke:#434343;stroke-width:0.0630817;stroke-miterlimit:4;stroke-dasharray:none;stroke-opacity:1"
       id="XMLID_639_"
       d="m 4.6701501,25.577287 c -0.0074,0.524496 0.3728595,0.95147 0.849183,0.953614 l 9.6094899,0.04488 c 0.02014,0.419936 0.05493,0.839244 0.105488,1.257021 0.108387,0.896122 0.363427,2.169858 1.321794,2.881039 1.912691,1.419254 4.443754,0.07206 5.275453,-0.370697 0.156365,-0.08321 0.508754,-0.235022 0.508754,-0.235022 l 5.897107,-0.02804 c 0,0 1.051667,0.461138 1.561443,0.709914 1.536563,0.749859 3.627865,0.802857 4.950549,-0.519496 0.0082,-0.0081 0.01624,-0.01627 0.02424,-0.02447 0.692843,-0.706536 0.967488,-1.672402 1.113857,-2.337507 0.104777,-0.476439 0.177105,-0.959974 0.219194,-1.446008 l 8.071442,0.03175 c 0.476357,0.0018 0.868274,-0.421763 0.875199,-0.946324 0.0036,-0.265382 -0.09204,-0.505661 -0.249174,-0.678641 -0.15333,-0.168793 -0.365313,-0.273377 -0.600571,-0.274352 l -8.091614,-0.03171 c -0.0467,-0.576847 -0.136496,-1.149172 -0.271481,-1.709495 -0.341329,-1.416442 -1.107608,-2.557288 -2.444144,-2.909769 -1.088016,-0.28696 -2.284625,-0.122835 -3.340934,0.269648 -0.670868,0.249321 -1.235563,0.808735 -1.96504,0.814456 -0.462559,0.0036 -5.63922,0.03507 -5.63922,0.03507 -0.209172,-0.114536 -0.523861,-0.286958 -0.523861,-0.286958 -1.461805,-0.800723 -4.608431,-1.705756 -6.05394,0.600766 -0.297211,0.474199 -0.444143,1.031994 -0.541287,1.590037 -0.02865,0.164576 -0.210944,1.709169 -0.191021,1.709311 L 5.5460053,24.631484 C 5.0696517,24.629384 4.677492,25.05271 4.6701392,25.577252 Z m 12.8613329,3.558037 c -0.293401,-0.217669 -0.485164,-0.732404 -0.586942,-1.574014 -0.164649,-1.360596 -0.145937,-2.739654 0.0557,-4.098757 0.05618,-0.378689 0.130161,-0.764156 0.289762,-1.018819 0.243109,-0.387907 0.661224,-0.575141 1.152081,-0.625671 l -0.03894,7.625793 c -0.338671,-0.02556 -0.628643,-0.128164 -0.871659,-0.308532 z m 6.282002,-1.0281 0.02399,-5.153367 1.993193,-0.01238 -0.02643,5.184089 c -0.738515,-0.01665 -1.410096,-0.0256 -1.990758,-0.01838 z m 5.569369,-5.476406 c 0.36382,-0.202621 0.564298,-0.314328 0.683765,-0.385749 l 0.0018,0.0038 c 1.05075,-0.585339 2.811565,-0.782718 3.507053,-0.160062 0.253028,0.226768 0.442927,0.630576 0.597271,1.271168 0.323093,1.340728 0.336312,2.765827 0.03824,4.121228 -0.147867,0.672277 -0.339226,1.110222 -0.602015,1.378143 -0.706408,0.720326 -2.46958,0.581809 -3.574184,-0.02323 l -0.681622,-0.373339 c -0.341095,-0.186796 -0.723646,-0.284336 -1.106175,-0.281925 -0.173313,0.0011 -0.422103,-0.0034 -0.717723,-0.01055 l 0.02675,-5.239464 0.717885,-0.0044 c 0.382608,-0.0022 0.76609,-0.104517 1.109,-0.295498 z m -7.270571,0.322477 -0.02459,5.278574 c -0.09403,0.01911 -1.656664,0.736719 -1.957658,0.857784 l 0.03591,-7.031759 c 0.352608,0.115721 1.85566,0.881369 1.94635,0.895401 z" />
  </g>
</svg>
