<!DOCTYPE svg PUBLIC "-//W3C//DTD SVG 20010904//EN" "http://www.w3.org/TR/2001/REC-SVG-20010904/DTD/svg10.dtd">
<svg version="1.0" xmlns="http://www.w3.org/2000/svg" width="300px" height="330px" viewBox="0 0 3000 3300" preserveAspectRatio="xMidYMid meet">
<g id="layer101" fill="#030403" stroke="none">
<path d="M0 1650 l0 -1650 1500 0 1500 0 0 1650 0 1650 -1500 0 -1500 0 0 -1650z"/>
</g>
<g id="layer102" fill="#241f0e" stroke="none">
<path d="M0 1650 l0 -1650 1500 0 1500 0 0 1650 0 1650 -1500 0 -1500 0 0 -1650z m1130 290 c0 -10 258 -472 270 -484 6 -6 55 86 124 230 139 288 140 289 150 289 8 0 100 -173 217 -408 33 -65 64 -115 69 -112 13 8 172 335 175 362 2 12 19 49 39 83 20 33 36 65 36 71 0 24 38 -5 64 -49 6 -11 40 -62 74 -115 l64 -97 204 0 204 0 0 -25 0 -25 -199 0 c-196 0 -231 3 -231 21 0 11 -61 102 -84 124 -8 9 -23 32 -32 51 -9 19 -25 39 -35 45 -16 8 -23 -1 -58 -73 -175 -365 -217 -448 -226 -447 -5 0 -68 117 -139 260 -72 142 -135 259 -141 259 -12 0 -119 -215 -130 -262 -4 -15 -13 -32 -21 -39 -8 -6 -14 -16 -14 -22 0 -21 -95 -197 -105 -194 -5 2 -74 118 -151 257 -78 140 -147 256 -153 258 -6 2 -22 -20 -36 -50 -71 -153 -125 -268 -145 -313 -42 -97 -75 -155 -87 -155 -7 0 -13 5 -13 11 0 6 -10 24 -22 39 -13 16 -33 41 -45 57 -13 15 -23 35 -23 43 0 8 -20 41 -43 74 l-43 58 -239 2 -240 1 -3 23 -3 22 255 0 c185 0 256 -3 256 -11 0 -15 152 -248 162 -249 11 0 61 90 54 97 -3 4 0 13 7 22 8 9 51 99 97 201 46 102 88 191 93 198 8 10 14 9 28 -4 11 -10 19 -20 19 -24z"/>
</g>
<g id="layer103" fill="#111c26" stroke="none">
<path d="M0 1650 l0 -1650 1500 0 1500 0 0 1650 0 1650 -1500 0 -1500 0 0 -1650z m1130 290 c0 -10 258 -472 270 -484 10 -10 145 258 175 347 9 26 26 63 39 81 12 19 29 48 36 65 7 17 19 31 27 31 9 0 62 -98 141 -260 69 -143 131 -259 136 -257 14 5 104 175 117 222 6 22 16 45 23 50 18 14 39 55 42 82 1 12 18 49 38 83 20 33 36 65 36 71 0 24 38 -5 64 -49 6 -11 40 -62 74 -115 l64 -97 204 0 204 0 0 -25 0 -25 -199 0 c-206 0 -231 3 -231 26 0 7 -6 17 -12 21 -15 9 -33 37 -48 71 -5 12 -13 22 -18 22 -5 0 -19 21 -32 46 -42 80 -53 77 -101 -23 -22 -49 -46 -101 -53 -118 -6 -16 -39 -84 -73 -150 -33 -66 -63 -132 -67 -147 -9 -38 -41 -37 -54 0 -5 16 -16 35 -23 43 -8 8 -21 30 -30 49 -69 149 -196 395 -205 397 -6 2 -21 -20 -33 -49 -13 -29 -38 -84 -57 -123 -18 -38 -38 -81 -44 -95 -5 -14 -14 -32 -19 -40 -5 -8 -31 -59 -58 -112 -26 -54 -52 -96 -58 -95 -5 2 -74 118 -151 257 -78 140 -147 256 -153 258 -6 2 -22 -20 -36 -50 -71 -153 -125 -268 -145 -313 -42 -97 -75 -155 -87 -155 -7 0 -13 5 -13 11 0 6 -10 24 -22 39 -13 16 -33 41 -45 57 -13 15 -23 35 -23 43 0 8 -20 41 -43 74 l-43 58 -239 2 -240 1 -3 23 -3 22 255 0 c185 0 256 -3 256 -11 0 -15 152 -248 162 -249 11 0 61 90 54 97 -3 4 0 13 7 22 8 9 51 99 97 201 46 102 88 191 93 198 8 10 14 9 28 -4 11 -10 19 -20 19 -24z"/>
</g>
<g id="layer104" fill="#332c15" stroke="none">
<path d="M0 1650 l0 -1650 1500 0 1500 0 0 1650 0 1650 -1500 0 -1500 0 0 -1650z m1132 293 c13 -21 78 -136 144 -255 65 -120 123 -216 127 -215 12 3 155 280 173 334 8 24 25 59 38 77 12 19 29 48 36 65 7 17 19 31 27 31 9 0 62 -98 141 -260 69 -143 131 -259 136 -257 13 4 115 197 116 216 0 29 143 302 156 299 7 -2 53 -61 102 -133 l89 -130 201 -3 202 -2 0 -25 0 -25 -203 0 c-219 0 -221 0 -254 56 -38 65 -124 184 -133 184 -5 0 -34 -53 -65 -117 -31 -65 -82 -170 -114 -233 -32 -63 -61 -127 -65 -142 -10 -42 -39 -36 -61 12 -10 22 -21 40 -24 40 -3 0 -14 19 -25 43 -47 108 -192 392 -202 394 -6 2 -21 -20 -33 -49 -13 -29 -38 -84 -56 -123 -19 -38 -41 -87 -49 -108 -38 -94 -110 -236 -122 -241 -8 -3 -19 0 -25 7 -6 7 -71 120 -144 252 -73 132 -139 241 -146 242 -9 2 -26 -24 -44 -65 -16 -37 -49 -110 -73 -162 -24 -52 -48 -104 -53 -115 -5 -11 -13 -27 -18 -35 -5 -8 -19 -38 -32 -67 -13 -29 -31 -52 -39 -53 -8 0 -28 21 -45 48 -16 26 -32 49 -36 52 -3 3 -32 44 -63 93 l-58 87 -244 0 -244 0 0 25 0 25 258 0 258 0 54 -90 c30 -49 58 -90 62 -90 4 0 8 -6 8 -12 0 -7 11 -26 24 -43 l24 -30 10 25 c74 186 230 510 246 510 7 0 24 -17 38 -37z"/>
</g>
<g id="layer105" fill="#473d1c" stroke="none">
<path d="M0 1650 l0 -1650 1500 0 1500 0 0 1650 0 1650 -1500 0 -1500 0 0 -1650z m1132 293 c13 -21 78 -136 144 -255 65 -120 123 -216 127 -215 9 3 109 190 120 224 4 10 11 25 16 33 5 8 19 40 32 70 13 30 31 66 41 79 10 13 23 41 28 62 8 29 16 39 31 39 16 0 40 -40 120 -202 98 -197 147 -289 162 -304 9 -9 36 26 37 47 0 9 7 22 15 29 8 7 15 19 15 27 0 28 193 404 206 401 7 -2 53 -61 102 -133 l89 -130 201 -3 202 -2 0 -25 0 -25 -206 0 -205 0 -30 32 c-16 18 -29 36 -29 39 0 13 -111 169 -120 169 -5 0 -30 -44 -55 -97 -26 -54 -73 -152 -104 -218 -32 -66 -66 -139 -76 -162 -23 -55 -46 -56 -70 -3 -10 22 -21 40 -24 40 -3 0 -14 19 -25 43 -58 131 -198 397 -208 397 -4 0 -11 -12 -14 -27 -4 -16 -23 -62 -44 -103 -20 -41 -48 -100 -62 -130 -123 -268 -134 -285 -159 -257 -6 7 -71 120 -144 252 -73 132 -139 241 -146 242 -9 2 -26 -24 -44 -65 -16 -37 -49 -110 -73 -162 -24 -52 -48 -104 -53 -115 -5 -11 -13 -27 -18 -35 -5 -8 -19 -38 -32 -67 -13 -29 -31 -52 -39 -53 -8 0 -28 21 -45 48 -16 26 -32 49 -36 52 -3 3 -32 44 -63 93 l-58 87 -244 0 -244 0 0 25 0 25 258 0 258 0 54 -90 c30 -49 58 -90 62 -90 4 0 8 -6 8 -12 0 -7 11 -26 24 -43 l24 -30 10 25 c74 186 230 510 246 510 7 0 24 -17 38 -37z"/>
</g>
<g id="layer106" fill="#4475a1" stroke="none">
<path d="M0 1650 l0 -1650 1500 0 1500 0 0 1650 0 1650 -1500 0 -1500 0 0 -1650z m1132 293 c13 -21 78 -136 144 -255 65 -120 123 -216 127 -215 11 3 89 156 178 350 54 117 77 157 90 157 13 0 52 -65 149 -255 116 -225 150 -281 150 -245 0 5 55 120 121 255 78 157 126 245 135 243 7 -2 53 -61 102 -133 l89 -130 201 -3 202 -2 0 -25 0 -25 -206 0 -205 0 -30 33 c-17 17 -38 46 -46 62 -27 52 -93 145 -103 145 -9 0 -73 -126 -118 -230 -10 -25 -45 -100 -77 -167 -62 -132 -82 -149 -105 -92 -7 17 -18 36 -25 42 -6 7 -58 104 -114 217 -57 113 -107 209 -112 214 -7 8 -62 -99 -209 -411 -43 -93 -61 -112 -81 -90 -6 7 -71 120 -144 252 -73 132 -139 241 -146 242 -9 2 -26 -24 -44 -65 -16 -37 -49 -110 -73 -162 -24 -52 -48 -104 -53 -115 -5 -11 -13 -27 -18 -35 -5 -8 -19 -38 -32 -67 -13 -29 -31 -52 -39 -53 -8 0 -28 21 -45 48 -16 26 -32 49 -36 52 -3 3 -32 44 -63 93 l-58 87 -244 0 -244 0 0 25 0 25 258 0 258 0 54 -90 c30 -49 58 -90 62 -90 4 0 8 -6 8 -12 0 -7 11 -26 24 -43 l24 -30 10 25 c74 186 230 510 246 510 7 0 24 -17 38 -37z"/>
</g>
<g id="layer107" fill="#ffda66" stroke="none">
<path d="M0 1650 l0 -1650 1500 0 1500 0 0 1650 0 1650 -1500 0 -1500 0 0 -1650z m677 778 c320 -412 379 -484 387 -467 11 23 51 25 60 4 8 -23 26 -18 84 21 30 20 55 34 56 32 1 -2 49 -84 105 -183 57 -99 107 -184 112 -189 5 -6 42 59 91 162 60 125 87 172 100 172 12 0 53 -70 148 -255 116 -225 150 -281 150 -245 0 5 29 67 64 138 35 71 87 181 116 245 43 96 57 117 74 117 16 0 43 -33 111 -132 l90 -133 198 -3 197 -2 0 -25 0 -25 -214 0 -215 0 -13 24 c-20 37 -137 204 -146 210 -5 3 -17 -14 -27 -37 -78 -176 -237 -487 -249 -487 -10 0 -62 93 -145 258 -71 141 -133 256 -137 256 -5 -1 -42 -71 -82 -156 l-74 -154 94 -162 c51 -89 96 -162 99 -162 4 0 39 25 78 56 39 30 76 54 81 52 5 -2 142 -163 303 -357 l295 -355 -406 -273 c-224 -149 -407 -271 -409 -269 -2 1 -64 207 -139 457 -74 249 -136 455 -138 456 -1 1 -60 -32 -130 -73 -71 -42 -132 -72 -136 -67 -4 4 -47 146 -96 315 -49 170 -92 308 -95 308 -3 0 -19 -28 -35 -62 -16 -35 -36 -64 -44 -66 -10 -1 -42 40 -89 113 -51 81 -78 115 -90 113 -10 -3 -20 7 -27 27 l-11 30 -241 3 -242 2 0 25 0 25 234 2 233 3 -173 605 c-206 722 -191 664 -159 625 14 -16 195 -249 402 -517z"/>
</g>
<g id="layer108" fill="#ffffff" stroke="none">
<path d="M0 1650 l0 -1650 1500 0 1500 0 0 1650 0 1650 -1500 0 -1500 0 0 -1650z m1474 1161 c75 -250 137 -456 140 -458 2 -2 61 31 131 73 69 42 130 72 134 68 4 -5 54 -170 111 -366 57 -197 106 -358 110 -358 4 0 29 47 55 105 39 85 52 105 69 105 16 0 44 -33 111 -132 l90 -133 198 -3 197 -2 0 -26 0 -25 -220 3 c-121 2 -220 2 -220 0 0 -2 81 -287 181 -634 99 -346 179 -631 177 -633 -2 -1 -173 218 -381 486 -264 340 -384 489 -398 489 -12 0 -26 15 -39 41 -13 24 -26 39 -34 36 -7 -3 -46 -26 -86 -52 -39 -25 -73 -45 -75 -43 -1 2 -39 67 -84 146 -46 78 -86 140 -91 137 -4 -2 -13 -17 -19 -33 -11 -27 -6 -39 81 -190 51 -89 96 -162 99 -162 4 0 39 25 78 56 39 30 76 54 81 52 5 -2 142 -163 303 -357 l295 -355 -406 -273 c-224 -149 -407 -271 -409 -269 -2 1 -64 207 -139 457 -74 249 -136 455 -138 456 -1 1 -60 -32 -130 -73 -71 -42 -132 -72 -136 -67 -4 4 -47 146 -96 315 -49 170 -92 308 -95 308 -3 0 -19 -28 -35 -62 -16 -35 -36 -64 -44 -66 -10 -1 -42 40 -89 113 -51 81 -78 115 -90 113 -10 -3 -20 7 -27 27 l-11 30 -241 3 -242 2 0 25 0 25 234 2 233 3 -178 624 c-98 344 -177 626 -175 628 2 2 183 -228 402 -511 337 -435 400 -512 408 -495 11 23 51 25 60 4 8 -23 26 -18 84 21 30 20 55 34 56 32 1 -2 49 -84 105 -183 57 -99 107 -184 111 -189 5 -5 16 6 25 25 l17 35 -118 204 c-65 113 -119 207 -121 209 -1 2 -39 -23 -83 -57 l-80 -61 -299 361 -300 362 407 272 c224 149 408 271 409 270 1 -1 62 -205 137 -455z"/>
<path d="M1131 3004 c-12 -15 -21 -39 -21 -54 0 -31 31 -76 59 -85 55 -17 111 53 90 114 -20 57 -92 71 -128 25z"/>
<path d="M2178 1799 c-56 -120 -60 -130 -49 -148 7 -10 29 1 100 48 50 34 91 64 91 67 0 7 -78 122 -88 128 -4 2 -28 -40 -54 -95z"/>
<path d="M796 1695 c-86 -60 -85 -51 -20 -150 l57 -87 33 65 33 65 -21 71 c-12 39 -24 71 -27 70 -3 0 -28 -15 -55 -34z"/>
<path d="M1750 535 c-34 -37 -33 -90 4 -121 33 -29 65 -31 94 -4 29 27 37 64 22 101 -23 54 -81 66 -120 24z"/>
</g>


</svg>