<?xml version="1.0" encoding="UTF-8" standalone="no"?>
<svg
   xmlns:dc="http://purl.org/dc/elements/1.1/"
   xmlns:cc="http://creativecommons.org/ns#"
   xmlns:rdf="http://www.w3.org/1999/02/22-rdf-syntax-ns#"
   xmlns:svg="http://www.w3.org/2000/svg"
   xmlns="http://www.w3.org/2000/svg"
   xmlns:sodipodi="http://sodipodi.sourceforge.net/DTD/sodipodi-0.dtd"
   xmlns:inkscape="http://www.inkscape.org/namespaces/inkscape"
   inkscape:version="1.0 (4035a4fb49, 2020-05-01)"
   sodipodi:docname="ElectricpyLogo_edit.svg"
   viewBox="0 0 300 330.66666"
   height="330.66666"
   width="300"
   xml:space="preserve"
   id="svg2"
   version="1.1"><metadata
     id="metadata8"><rdf:RDF><cc:Work
         rdf:about=""><dc:format>image/svg+xml</dc:format><dc:type
           rdf:resource="http://purl.org/dc/dcmitype/StillImage" /><dc:title></dc:title></cc:Work></rdf:RDF></metadata><defs
     id="defs6"><filter
       id="filter133"
       style="color-interpolation-filters:sRGB;"
       inkscape:label="Light Eraser"><feColorMatrix
         id="feColorMatrix129"
         result="colormatrix"
         values="1 0 0 0 0 0 1 0 0 0 0 0 1 0 0 -0.2125 -0.7154 -0.0721 359.517 0 " /><feComposite
         id="feComposite131"
         result="fbSourceGraphic"
         k2="1"
         operator="arithmetic"
         in2="colormatrix" /><feColorMatrix
         id="feColorMatrix225"
         values="0 0 0 -1 0 0 0 0 -1 0 0 0 0 -1 0 0 0 0 1 0"
         in="fbSourceGraphic"
         result="fbSourceGraphicAlpha" /><feColorMatrix
         in="fbSourceGraphic"
         result="colormatrix"
         values="1 0 0 0 0 0 1 0 0 0 0 0 1 0 0 -84.871 -285.726 -28.7962 344.411 0 "
         id="feColorMatrix227" /><feComposite
         result="fbSourceGraphic"
         k2="1"
         operator="arithmetic"
         id="feComposite229"
         in2="colormatrix" /><feColorMatrix
         id="feColorMatrix231"
         values="0 0 0 -1 0 0 0 0 -1 0 0 0 0 -1 0 0 0 0 1 0"
         in="fbSourceGraphic"
         result="fbSourceGraphicAlpha" /><feColorMatrix
         in="fbSourceGraphic"
         result="colormatrix"
         values="1 0 0 0 0 0 1 0 0 0 0 0 1 0 0 -84.871 -285.726 -28.7962 344.411 0 "
         id="feColorMatrix233" /><feComposite
         result="composite"
         k2="1"
         operator="arithmetic"
         id="feComposite235"
         in2="colormatrix" /></filter></defs><sodipodi:namedview
     inkscape:current-layer="g10"
     inkscape:window-maximized="1"
     inkscape:window-y="-8"
     inkscape:window-x="-8"
     inkscape:cy="165.33333"
     inkscape:cx="86.116102"
     inkscape:zoom="2.2227823"
     showgrid="false"
     id="namedview4"
     inkscape:window-height="1137"
     inkscape:window-width="1920"
     inkscape:pageshadow="2"
     inkscape:pageopacity="0"
     guidetolerance="10"
     gridtolerance="10"
     objecttolerance="10"
     borderopacity="1"
     bordercolor="#666666"
     pagecolor="#ffffff" /><g
     transform="matrix(1.3333333,0,0,-1.3333333,0,330.66667)"
     inkscape:label="ink_ext_XXXXXX"
     inkscape:groupmode="layer"
     id="g10"><g
       style="filter:url(#filter133)"
       transform="matrix(0.1,0,0,0.1,-1.0122467,-0.67482611)"
       id="g12"><path
         id="path14"
         style="fill:#030403;fill-opacity:1;fill-rule:nonzero;stroke:none"
         d="M 0,1242.5 V 2480 H 2250 V 5 H 0 Z" /><path
         id="path16"
         style="fill:#241f0e;fill-opacity:1;fill-rule:nonzero;stroke:none"
         d="M 0,1242.5 V 2480 H 2250 V 5 H 0 Z M 847.5,1025 c 0,7.5 193.52,353.98 202.5,363.01 4.49,4.49 41.25,-64.49 93.01,-172.5 104.26,-216.022 105,-216.76 112.5,-216.76 5.97,0 75,129.77 162.73,306.02 24.77,48.75 48.01,86.25 51.76,83.98 9.77,-6.02 128.98,-251.25 131.25,-271.48 1.48,-9.03 14.26,-36.76 29.26,-62.27 15,-24.77 26.99,-48.75 26.99,-53.24 0,-18.01 28.52,3.75 48.01,36.76 4.49,8.24 30,46.48 55.51,86.25 l 47.96,72.73 H 2115 v 37.5 h -149.26 c -146.99,0 -173.24,-2.27 -173.24,-15.74 0,-8.24 -45.74,-76.53 -63.01,-93.01 -5.97,-6.76 -17.22,-23.98 -23.98,-38.24 -6.76,-14.26 -18.75,-29.26 -26.25,-33.75 -11.99,-6.02 -17.27,0.74 -43.52,54.72 -131.25,273.75 -162.73,336.02 -169.49,335.28 -3.75,0 -51.02,-87.78 -104.26,-195 C 1308.01,1142.73 1260.74,1055 1256.25,1055 c -8.98,0 -89.26,161.25 -97.5,196.48 -3.01,11.25 -9.77,24.03 -15.74,29.26 -6.02,4.49 -10.51,11.99 -10.51,16.53 0,15.74 -71.25,147.73 -78.75,145.46 C 1050,1441.25 998.238,1354.26 940.512,1250 881.988,1145 830.23,1058.01 825.738,1056.48 c -4.488,-1.48 -16.476,15 -26.988,37.5 C 745.512,1208.75 705,1295 690,1328.75 658.52,1401.48 633.75,1445 624.77,1445 c -5.282,0 -9.77,-3.75 -9.77,-8.24 0,-4.49 -7.5,-18.01 -16.48,-29.26 -9.77,-11.99 -24.77,-30.74 -33.75,-42.73 -9.77,-11.25 -17.27,-26.25 -17.27,-32.27 0,-6.02 -15,-30.74 -32.27,-55.51 l -32.218,-43.47 -179.262,-1.53 -180,-0.74 -2.27,-17.27 -2.218,-16.48 h 191.25 c 138.75,0 191.988,2.27 191.988,8.24 0,11.25 113.98,186.02 121.48,186.76 8.29,0 45.79,-67.5 40.508,-72.73 -2.218,-3.01 0,-9.77 5.282,-16.53 5.968,-6.76 38.242,-74.26 72.73,-150.74 34.488,-76.48 66.02,-143.24 69.77,-148.52 5.968,-7.5 10.46,-6.71 20.968,3.01 8.242,7.5 14.262,15 14.262,18.01 z" /><path
         id="path18"
         style="fill:#111c26;fill-opacity:1;fill-rule:nonzero;stroke:none"
         d="M 0,1242.5 V 2480 H 2250 V 5 H 0 Z M 847.5,1025 c 0,7.5 193.52,353.98 202.5,363.01 7.5,7.5 108.75,-193.52 131.25,-260.28 6.76,-19.49 19.49,-47.22 29.26,-60.74 8.98,-14.26 21.76,-35.97 26.99,-48.75 5.23,-12.73 14.26,-23.24 20.23,-23.24 6.76,0 46.53,73.52 105.79,195 51.71,107.27 98.24,194.26 101.99,192.73 10.51,-3.75 78.01,-131.25 87.73,-166.48 4.49,-16.48 11.99,-33.75 17.27,-37.5 13.47,-10.51 29.26,-41.25 31.48,-61.48 0.74,-9.03 13.52,-36.76 28.52,-62.27 15,-24.77 26.99,-48.75 26.99,-53.24 0,-18.01 28.52,3.75 48.01,36.76 4.49,8.24 30,46.48 55.51,86.25 l 47.96,72.73 H 2115 v 37.5 h -149.26 c -154.49,0 -173.24,-2.27 -173.24,-19.49 0,-5.28 -4.49,-12.78 -8.98,-15.74 -11.25,-6.76 -24.77,-27.78 -36.02,-53.29 -3.75,-8.98 -9.77,-16.48 -13.52,-16.48 -3.75,0 -14.21,-15.74 -23.98,-34.49 -31.48,-60 -39.77,-57.78 -75.74,17.22 -16.53,36.76 -34.49,75.79 -39.77,88.52 -4.49,11.99 -29.26,63.01 -54.72,112.5 -24.77,49.49 -47.27,98.98 -50.28,110.23 -6.76,28.52 -30.74,27.78 -40.51,0 -3.75,-11.99 -11.99,-26.25 -17.22,-32.22 -6.02,-6.02 -15.74,-22.5 -22.5,-36.76 -51.76,-111.76 -146.99,-296.25 -153.75,-297.73 -4.49,-1.53 -15.74,15 -24.77,36.71 -9.72,21.76 -28.47,63.01 -42.73,92.27 -13.52,28.52 -28.52,60.74 -33.01,71.25 -3.75,10.51 -10.51,23.98 -14.26,30 -3.75,6.02 -23.24,44.26 -43.47,83.98 -19.54,40.51 -39.03,72.04 -43.52,71.25 C 1050,1441.25 998.238,1354.26 940.512,1250 881.988,1145 830.23,1058.01 825.738,1056.48 c -4.488,-1.48 -16.476,15 -26.988,37.5 C 745.512,1208.75 705,1295 690,1328.75 658.52,1401.48 633.75,1445 624.77,1445 c -5.282,0 -9.77,-3.75 -9.77,-8.24 0,-4.49 -7.5,-18.01 -16.48,-29.26 -9.77,-11.99 -24.77,-30.74 -33.75,-42.73 -9.77,-11.25 -17.27,-26.25 -17.27,-32.27 0,-6.02 -15,-30.74 -32.27,-55.51 l -32.218,-43.47 -179.262,-1.53 -180,-0.74 -2.27,-17.27 -2.218,-16.48 h 191.25 c 138.75,0 191.988,2.27 191.988,8.24 0,11.25 113.98,186.02 121.48,186.76 8.29,0 45.79,-67.5 40.508,-72.73 -2.218,-3.01 0,-9.77 5.282,-16.53 5.968,-6.76 38.242,-74.26 72.73,-150.74 34.488,-76.48 66.02,-143.24 69.77,-148.52 5.968,-7.5 10.46,-6.71 20.968,3.01 8.242,7.5 14.262,15 14.262,18.01 z" /><path
         id="path20"
         style="fill:#332c15;fill-opacity:1;fill-rule:nonzero;stroke:none"
         d="M 0,1242.5 V 2480 H 2250 V 5 H 0 Z m 848.98,-219.77 c 9.77,15.79 58.52,102.04 108.008,191.25 48.752,90 92.272,162.04 95.282,161.25 8.98,-2.22 116.25,-210 129.72,-250.46 6.02,-18.01 18.75,-44.26 28.52,-57.78 8.98,-14.26 21.76,-35.97 26.99,-48.75 5.23,-12.73 14.26,-23.24 20.23,-23.24 6.76,0 46.53,73.52 105.79,195 51.71,107.27 98.24,194.26 101.99,192.73 9.72,-2.96 86.25,-147.73 86.99,-161.99 0,-21.76 107.27,-226.478 116.99,-224.26 5.28,1.532 39.77,45.79 76.53,99.77 l 66.71,97.5 150.79,2.27 151.48,1.48 v 37.5 h -152.27 c -164.21,0 -165.74,0 -190.46,-41.99 -28.52,-48.75 -93.01,-138.01 -99.77,-138.01 -3.75,0 -25.51,39.77 -48.75,87.73 -23.24,48.75 -61.48,127.5 -85.51,174.77 -23.98,47.27 -45.74,95.23 -48.75,106.48 -7.5,31.53 -29.26,27.04 -45.74,-8.98 -7.5,-16.48 -15.74,-30 -18.01,-30 -2.22,0 -10.51,-14.26 -18.75,-32.27 -35.23,-80.97 -143.98,-293.98 -151.48,-295.46 -4.49,-1.53 -15.74,15 -24.77,36.71 -9.72,21.76 -28.47,63.01 -41.99,92.27 -14.26,28.52 -30.74,65.23 -36.76,81.02 -28.47,70.46 -82.5,176.99 -91.48,180.74 -6.02,2.22 -14.26,0 -18.75,-5.28 -4.49,-5.23 -53.24,-90 -108.01,-188.98 -54.77,-98.98 -104.262,-180.74 -109.488,-181.48 -6.762,-1.53 -19.492,17.96 -33.012,48.75 -11.988,27.73 -36.762,82.5 -54.77,121.48 -17.96,38.98 -35.968,78.01 -39.718,86.25 -3.75,8.24 -9.774,20.23 -13.524,26.25 -3.75,6.02 -14.258,28.52 -23.976,50.23 -9.774,21.76 -23.242,39.03 -29.262,39.77 -6.02,0 -21.02,-15.74 -33.75,-36.02 -11.988,-19.49 -23.98,-36.71 -26.988,-38.98 -2.274,-2.27 -24.032,-33.01 -47.274,-69.77 L 478.52,1235 H 112.5 v -37.5 H 499.488 L 540,1265 c 22.5,36.76 43.52,67.5 46.48,67.5 3.008,0 6.02,4.49 6.02,8.98 0,5.28 8.238,19.54 18.012,32.27 l 18.008,22.5 7.5,-18.75 C 691.48,1238.01 808.52,995 820.512,995 c 5.226,0 18.008,12.73 28.468,27.73 z" /><path
         id="path22"
         style="fill:#473d1c;fill-opacity:1;fill-rule:nonzero;stroke:none"
         d="M 0,1242.5 V 2480 H 2250 V 5 H 0 Z m 848.98,-219.77 c 9.77,15.79 58.52,102.04 108.008,191.25 48.752,90 92.272,162.04 95.282,161.25 6.71,-2.22 81.71,-142.5 90,-167.96 2.96,-7.5 8.24,-18.75 11.99,-24.77 3.75,-6.02 14.26,-30 23.98,-52.5 9.77,-22.5 23.24,-49.49 30.74,-59.26 7.5,-9.72 17.27,-30.74 21.02,-46.48 6.02,-21.76 11.99,-29.26 23.24,-29.26 11.99,0 30,30 90,151.48 73.52,147.78 110.28,216.76 121.53,228.01 6.71,6.76 26.99,-19.49 27.73,-35.23 0,-6.76 5.23,-16.53 11.25,-21.76 6.02,-5.23 11.25,-14.26 11.25,-20.23 0,-21.02 144.77,-303.008 154.49,-300.79 5.28,1.532 39.77,45.79 76.53,99.77 l 66.71,97.5 150.79,2.27 151.48,1.48 v 37.5 h -308.24 l -22.5,-23.98 c -11.99,-13.52 -21.76,-27.04 -21.76,-29.26 0,-9.77 -83.24,-126.76 -90,-126.76 -3.75,0 -22.5,33.01 -41.25,72.73 -19.49,40.51 -54.77,114.03 -78.01,163.52 -23.98,49.49 -49.49,104.26 -56.99,121.48 -17.27,41.25 -34.49,42.04 -52.5,2.27 -7.5,-16.48 -15.74,-30 -18.01,-30 -2.22,0 -10.51,-14.26 -18.75,-32.27 -43.47,-98.24 -148.47,-297.73 -155.97,-297.73 -3.01,0 -8.29,8.98 -10.51,20.23 -3.01,12.04 -17.27,46.53 -33.01,77.27 -15,30.74 -36.02,75 -46.48,97.5 -92.27,201.02 -100.51,213.75 -119.26,192.73 -4.49,-5.23 -53.24,-90 -108.01,-188.98 -54.77,-98.98 -104.262,-180.74 -109.488,-181.48 -6.762,-1.53 -19.492,17.96 -33.012,48.75 -11.988,27.73 -36.762,82.5 -54.77,121.48 -17.96,38.98 -35.968,78.01 -39.718,86.25 -3.75,8.24 -9.774,20.23 -13.524,26.25 -3.75,6.02 -14.258,28.52 -23.976,50.23 -9.774,21.76 -23.242,39.03 -29.262,39.77 -6.02,0 -21.02,-15.74 -33.75,-36.02 -11.988,-19.49 -23.98,-36.71 -26.988,-38.98 -2.274,-2.27 -24.032,-33.01 -47.274,-69.77 L 478.52,1235 H 112.5 v -37.5 H 499.488 L 540,1265 c 22.5,36.76 43.52,67.5 46.48,67.5 3.008,0 6.02,4.49 6.02,8.98 0,5.28 8.238,19.54 18.012,32.27 l 18.008,22.5 7.5,-18.75 C 691.48,1238.01 808.52,995 820.512,995 c 5.226,0 18.008,12.73 28.468,27.73 z" /><path
         id="path24"
         style="fill:#4475a1;fill-opacity:1;fill-rule:nonzero;stroke:none"
         d="M 0,1242.5 V 2480 H 2250 V 5 H 0 Z m 848.98,-219.77 c 9.77,15.79 58.52,102.04 108.008,191.25 48.752,90 92.272,162.04 95.282,161.25 8.24,-2.22 66.71,-116.99 133.47,-262.5 40.51,-87.73 57.78,-117.73 67.5,-117.73 9.77,0 39.03,48.75 111.76,191.25 86.99,168.75 112.5,210.74 112.5,183.75 0,-3.75 41.25,-90 90.74,-191.25 58.52,-117.73 94.49,-183.75 101.25,-182.27 5.28,1.532 39.77,45.79 76.53,99.77 l 66.71,97.5 150.79,2.27 151.48,1.48 v 37.5 h -308.24 l -22.5,-24.77 c -12.78,-12.73 -28.52,-34.49 -34.49,-46.48 C 1729.49,1124.77 1680,1055 1672.5,1055 c -6.76,0 -54.77,94.49 -88.52,172.5 -7.5,18.75 -33.75,75 -57.73,125.23 -46.48,99.03 -61.48,111.76 -78.75,69.03 -5.23,-12.78 -13.52,-26.99 -18.75,-31.53 -4.49,-5.23 -43.52,-77.96 -85.51,-162.73 -42.73,-84.77 -80.23,-156.76 -83.98,-160.51 -5.28,-5.97 -46.53,74.26 -156.76,308.24 -32.27,69.77 -45.74,84.03 -60.74,67.5 -4.49,-5.23 -53.24,-90 -108.01,-188.98 -54.77,-98.98 -104.262,-180.74 -109.488,-181.48 -6.762,-1.53 -19.492,17.96 -33.012,48.75 -11.988,27.73 -36.762,82.5 -54.77,121.48 -17.96,38.98 -35.968,78.01 -39.718,86.25 -3.75,8.24 -9.774,20.23 -13.524,26.25 -3.75,6.02 -14.258,28.52 -23.976,50.23 -9.774,21.76 -23.242,39.03 -29.262,39.77 -6.02,0 -21.02,-15.74 -33.75,-36.02 -11.988,-19.49 -23.98,-36.71 -26.988,-38.98 -2.274,-2.27 -24.032,-33.01 -47.274,-69.77 L 478.52,1235 H 112.5 v -37.5 H 499.488 L 540,1265 c 22.5,36.76 43.52,67.5 46.48,67.5 3.008,0 6.02,4.49 6.02,8.98 0,5.28 8.238,19.54 18.012,32.27 l 18.008,22.5 7.5,-18.75 C 691.48,1238.01 808.52,995 820.512,995 c 5.226,0 18.008,12.73 28.468,27.73 z" /><path
         id="path26"
         style="fill:#ffda66;fill-opacity:1;fill-rule:nonzero;stroke:none"
         d="M 0,1242.5 V 2480 H 2250 V 5 H 0 Z M 507.73,658.98 c 240,309.032 284.258,363.01 290.282,350.28 8.238,-17.272 38.238,-18.748 45,-3.01 5.968,17.27 19.488,13.52 63.008,-15.738 22.5,-15 41.25,-25.512 41.992,-24.032 0.738,1.532 36.758,63.01 78.748,137.27 42.73,74.26 80.23,138.01 83.98,141.76 3.75,4.49 31.53,-44.26 68.24,-121.53 45,-93.75 65.28,-128.98 75,-128.98 9.03,0 39.77,52.5 111.02,191.25 86.99,168.75 112.5,210.74 112.5,183.75 0,-3.75 21.76,-50.23 48.01,-103.52 26.25,-53.24 65.23,-135.74 86.99,-183.75 32.27,-71.99 42.73,-87.73 55.51,-87.73 11.99,0 32.22,24.77 83.24,98.98 l 67.5,99.77 148.52,2.27 147.73,1.48 v 37.5 h -321.76 l -9.72,-18.01 c -15,-27.73 -102.78,-153.01 -109.54,-157.5 -3.75,-2.22 -12.73,10.51 -20.23,27.78 -58.52,131.99 -177.73,365.23 -186.76,365.23 -7.5,0 -46.48,-69.77 -108.75,-193.52 -53.24,-105.74 -99.72,-191.99 -102.73,-191.99 -3.75,0.74 -31.53,53.24 -61.53,116.99 l -55.46,115.51 70.46,121.53 c 38.29,66.71 72.04,121.48 74.26,121.48 3.01,0 29.26,-18.75 58.52,-41.99 29.26,-22.5 56.99,-40.51 60.74,-39.03 3.75,1.53 106.48,122.27 227.27,267.78 l 221.25,266.25 -304.54,204.72 c -167.96,111.76 -305.23,203.29 -306.71,201.76 -1.53,-0.74 -48.01,-155.23 -104.26,-342.73 -55.51,-186.76 -101.99,-341.25 -103.52,-341.99 -0.74,-0.79 -45.002,23.98 -97.502,54.72 -53.238,31.53 -98.976,54.03 -101.988,50.28 -3.012,-3.01 -35.23,-109.54 -71.988,-236.25 C 723.75,1458.52 691.48,1355 689.262,1355 c -2.274,0 -14.262,21.02 -26.25,46.48 -11.992,26.25 -26.992,48.01 -33.012,49.54 -7.5,0.74 -31.48,-30 -66.762,-84.77 -38.238,-60.74 -58.468,-86.25 -67.5,-84.77 -7.5,2.27 -15,-5.23 -20.226,-20.23 l -8.242,-22.5 -180.79,-2.27 L 105,1235 v -37.5 l 175.512,-1.48 174.718,-2.27 L 325.512,740 C 171.02,198.52 182.27,241.988 206.25,271.25 216.762,283.238 352.5,458.012 507.73,658.98 Z" /><path
         id="path28"
         style="fill:#ffffff;fill-opacity:1;fill-rule:nonzero;stroke:none"
         d="M 0,1242.5 V 2480 H 2250 V 5 H 0 Z M 1105.51,371.762 c 56.25,187.5 102.73,341.988 105,343.468 1.48,1.532 45.74,-23.242 98.24,-54.718 51.76,-31.532 97.5,-54.032 100.51,-51.024 3.01,3.75 40.51,127.5 83.24,274.492 42.73,147.78 79.49,268.52 82.5,268.52 3.01,0 21.76,-35.23 41.25,-78.75 29.26,-63.75 38.98,-78.75 51.76,-78.75 11.99,0 33.01,24.77 83.24,98.98 l 67.5,99.77 148.52,2.27 147.73,1.48 v 38.24 l -165,-2.22 c -90.74,-1.53 -165,-1.53 -165,0 0,1.48 60.74,215.23 135.74,475.46 74.26,259.54 134.26,473.29 132.78,474.77 -1.53,0.74 -129.77,-163.52 -285.79,-364.49 -197.96,-255 -287.96,-366.76 -298.47,-366.76 -9.03,0 -19.49,-11.25 -29.26,-30.74 -9.77,-18.01 -19.49,-29.26 -25.51,-26.99 -5.23,2.22 -34.49,19.49 -64.49,38.98 -29.26,18.75 -54.77,33.75 -56.25,32.27 -0.74,-1.53 -29.26,-50.28 -63.01,-109.54 -34.49,-58.47 -64.49,-105 -68.24,-102.73 -3.01,1.48 -9.77,12.73 -14.26,24.77 -8.24,20.23 -4.49,29.21 60.74,142.5 38.29,66.71 72.04,121.48 74.26,121.48 3.01,0 29.26,-18.75 58.52,-41.99 29.26,-22.5 56.99,-40.51 60.74,-39.03 3.75,1.53 106.48,122.27 227.27,267.78 l 221.25,266.25 -304.54,204.72 c -167.96,111.76 -305.23,203.29 -306.71,201.76 -1.53,-0.74 -48.01,-155.23 -104.26,-342.73 -55.51,-186.76 -101.99,-341.25 -103.52,-341.99 -0.74,-0.79 -45.002,23.98 -97.502,54.72 -53.238,31.53 -98.976,54.03 -101.988,50.28 -3.012,-3.01 -35.23,-109.54 -71.988,-236.25 C 723.75,1458.52 691.48,1355 689.262,1355 c -2.274,0 -14.262,21.02 -26.25,46.48 -11.992,26.25 -26.992,48.01 -33.012,49.54 -7.5,0.74 -31.48,-30 -66.762,-84.77 -38.238,-60.74 -58.468,-86.25 -67.5,-84.77 -7.5,2.27 -15,-5.23 -20.226,-20.23 l -8.242,-22.5 -180.79,-2.27 L 105,1235 v -37.5 l 175.512,-1.48 174.718,-2.27 L 321.762,725.738 C 248.238,467.73 188.98,256.25 190.512,254.77 c 1.476,-1.532 137.218,170.968 301.476,383.242 252.782,326.25 300,383.978 306.024,371.248 8.238,-17.272 38.238,-18.748 45,-3.01 5.968,17.27 19.488,13.52 63.008,-15.738 22.5,-15 41.25,-25.512 41.992,-24.032 0.738,1.532 36.758,63.01 78.748,137.27 42.73,74.26 80.23,138.01 83.24,141.76 3.75,3.75 11.99,-4.49 18.75,-18.75 l 12.73,-26.25 -88.47,-153.01 C 1004.26,962.73 963.75,892.27 962.27,890.738 961.48,889.262 933.012,908.012 900,933.52 L 840,979.262 615.738,708.52 390.738,436.988 696.02,233.012 C 863.98,121.25 1001.99,29.7695 1002.73,30.5117 c 0.79,0.7383 46.53,153.7503 102.78,341.2503 z" /><path
         id="path30"
         style="fill:#ffffff;fill-opacity:1;fill-rule:nonzero;stroke:none"
         d="m 848.238,226.988 c -8.976,11.25 -15.738,29.262 -15.738,40.512 0,23.238 23.238,56.988 44.262,63.75 41.25,12.73 83.238,-39.77 67.5,-85.512 -15,-42.726 -69.032,-53.238 -96.024,-18.75 z" /><path
         id="path32"
         style="fill:#ffffff;fill-opacity:1;fill-rule:nonzero;stroke:none"
         d="m 1633.52,1130.74 c -42.04,90 -45,97.5 -36.76,111.02 5.23,7.5 21.76,-0.74 75,-36.02 37.5,-25.51 68.24,-48.01 68.24,-50.23 0,-5.28 -58.52,-91.53 -66.02,-96.02 -2.96,-1.48 -20.97,30 -40.46,71.25 z" /><path
         id="path34"
         style="fill:#ffffff;fill-opacity:1;fill-rule:nonzero;stroke:none"
         d="m 596.988,1208.75 c -64.488,45 -63.75,38.24 -15,112.5 l 42.782,65.23 24.718,-48.75 24.774,-48.75 -15.742,-53.24 c -9.032,-29.26 -18.008,-53.24 -20.282,-52.5 -2.218,0 -20.968,11.25 -41.25,25.51 z" /><path
         id="path36"
         style="fill:#ffffff;fill-opacity:1;fill-rule:nonzero;stroke:none"
         d="m 1312.5,2078.75 c -25.51,27.73 -24.77,67.5 3.01,90.74 24.72,21.76 48.75,23.24 70.51,3.01 21.71,-20.23 27.73,-48.01 16.48,-75.74 -17.27,-40.51 -60.74,-49.49 -90,-18.01 z" /></g></g></svg>
